<svg width="18" height="16" viewBox="0 0 18 16" fill="none" xmlns="http://www.w3.org/2000/svg">
<path d="M8.43262 12.3092C8.14781 12.3092 7.8694 12.3937 7.6326 12.5519C7.39579 12.7101 7.21122 12.935 7.10223 13.1981C6.99324 13.4613 6.96472 13.7508 7.02028 14.0301C7.07585 14.3095 7.21299 14.5661 7.41438 14.7674C7.61577 14.9688 7.87235 15.106 8.15169 15.1615C8.43102 15.2171 8.72056 15.1886 8.98368 15.0796C9.24681 14.9706 9.47171 14.786 9.62994 14.5492C9.78816 14.3124 9.87262 14.034 9.87262 13.7492C9.87262 13.3673 9.72091 13.001 9.45085 12.731C9.1808 12.4609 8.81453 12.3092 8.43262 12.3092ZM8.43262 14.4692C8.29021 14.4692 8.15101 14.427 8.03261 14.3479C7.9142 14.2687 7.82192 14.1563 7.76742 14.0247C7.71293 13.8932 7.69867 13.7484 7.72645 13.6087C7.75423 13.4691 7.82281 13.3408 7.9235 13.2401C8.02419 13.1394 8.15249 13.0708 8.29215 13.043C8.43182 13.0153 8.57659 13.0295 8.70815 13.084C8.83971 13.1385 8.95216 13.2308 9.03128 13.3492C9.11039 13.4676 9.15262 13.6068 9.15262 13.7492C9.15119 13.9392 9.07471 14.121 8.93984 14.2548C8.80496 14.3887 8.62264 14.4638 8.43262 14.4638V14.4692Z" fill="black"/>
<path d="M13.7012 12.3092C13.4164 12.3092 13.138 12.3937 12.9012 12.5519C12.6644 12.7101 12.4798 12.935 12.3708 13.1981C12.2619 13.4613 12.2333 13.7508 12.2889 14.0301C12.3445 14.3095 12.4816 14.5661 12.683 14.7674C12.8844 14.9688 13.141 15.106 13.4203 15.1615C13.6996 15.2171 13.9892 15.1886 14.2523 15.0796C14.5154 14.9706 14.7403 14.786 14.8985 14.5492C15.0568 14.3124 15.1412 14.034 15.1412 13.7492C15.1412 13.3673 14.9895 13.001 14.7195 12.731C14.4494 12.4609 14.0831 12.3092 13.7012 12.3092ZM13.7012 14.4692C13.5588 14.4692 13.4196 14.427 13.3012 14.3479C13.1828 14.2687 13.0905 14.1563 13.036 14.0247C12.9815 13.8932 12.9673 13.7484 12.9951 13.6087C13.0228 13.4691 13.0914 13.3408 13.1921 13.2401C13.2928 13.1394 13.4211 13.0708 13.5608 13.043C13.7004 13.0153 13.8452 13.0295 13.9768 13.084C14.1083 13.1385 14.2208 13.2308 14.2999 13.3492C14.379 13.4676 14.4212 13.6068 14.4212 13.7492C14.4198 13.9392 14.3433 14.121 14.2084 14.2548C14.0736 14.3887 13.8913 14.4638 13.7012 14.4638V14.4692Z" fill="black"/>
<path d="M15.8486 10.115L17.3048 3.61337C17.3429 3.44338 17.3422 3.26701 17.3029 3.09731C17.2636 2.9276 17.1867 2.76889 17.0778 2.6329C16.969 2.49691 16.831 2.38711 16.674 2.31163C16.517 2.23614 16.345 2.19689 16.1708 2.19677H4.81824L4.59504 1.10417C4.57821 1.02163 4.53296 0.947611 4.46718 0.894988C4.40141 0.842365 4.31926 0.814476 4.23504 0.816174H0.773635C0.678157 0.816174 0.58659 0.854103 0.519077 0.921616C0.451564 0.989129 0.413635 1.0807 0.413635 1.17617C0.413635 1.27165 0.451564 1.36322 0.519077 1.43073C0.58659 1.49825 0.678157 1.53617 0.773635 1.53617H3.94884L4.17204 2.62877L5.70204 10.1078L6.04584 11.78C6.06267 11.8625 6.10791 11.9365 6.17369 11.9892C6.23947 12.0418 6.32162 12.0697 6.40584 12.068H16.4552C16.5507 12.068 16.6423 12.03 16.7098 11.9625C16.7773 11.895 16.8152 11.8035 16.8152 11.708C16.8152 11.6125 16.7773 11.5209 16.7098 11.4534C16.6423 11.3859 16.5507 11.348 16.4552 11.348H6.69204L6.49584 10.3922H15.4958C15.5773 10.3927 15.6566 10.3656 15.7207 10.3153C15.7848 10.2649 15.8299 10.1943 15.8486 10.115ZM6.35364 9.67577L4.96584 2.91677H16.1708C16.2374 2.91643 16.3031 2.93114 16.3631 2.95981C16.4231 2.98847 16.4759 3.03034 16.5175 3.08228C16.559 3.13422 16.5883 3.19489 16.6031 3.25974C16.6178 3.3246 16.6178 3.39195 16.6028 3.45677L15.2078 9.67577H6.35364Z" fill="black"/>
</svg>
