<svg width="19" height="18" viewBox="0 0 19 18" fill="none" xmlns="http://www.w3.org/2000/svg">
<g clip-path="url(#clip0_0_34)">
<path d="M18.3336 9.00002C18.3336 7.60327 17.9878 6.22825 17.327 4.99768C16.6663 3.76712 15.7111 2.71931 14.5468 1.94778C13.3824 1.17624 12.0452 0.704992 10.6544 0.576086C9.26362 0.44718 7.86255 0.664631 6.57626 1.20903C5.28997 1.75343 4.15848 2.60783 3.28279 3.69599C2.4071 4.78414 1.81445 6.07218 1.55774 7.44514C1.30104 8.81809 1.38826 10.2333 1.81163 11.5643C2.235 12.8953 2.98134 14.1008 3.98404 15.0732C5.55207 16.5955 7.64907 17.4509 9.8345 17.4596C12.0199 17.4684 14.1237 16.6298 15.7038 15.12C15.7385 15.0972 15.7689 15.0686 15.7938 15.0354C16.598 14.2494 17.2369 13.3106 17.673 12.2741C18.1092 11.2377 18.3338 10.1245 18.3336 9.00002ZM9.87364 1.26002C11.3704 1.26115 12.8348 1.69626 14.0894 2.51266C15.3439 3.32906 16.3349 4.49171 16.9422 5.85979C17.5494 7.22788 17.747 8.7427 17.5109 10.2208C17.2748 11.6988 16.6153 13.0768 15.612 14.1876C15.2138 13.3984 14.6562 12.7004 13.9747 12.1375C13.2931 11.5745 12.5023 11.159 11.652 10.917C12.3571 10.5227 12.9114 9.90558 13.2281 9.16243C13.5449 8.41929 13.6062 7.59207 13.4024 6.81036C13.1986 6.02864 12.7413 5.33661 12.1021 4.84265C11.4629 4.34869 10.6779 4.08073 9.87004 4.08073C9.06221 4.08073 8.27719 4.34869 7.63797 4.84265C6.99875 5.33661 6.54144 6.02864 6.33767 6.81036C6.13391 7.59207 6.1952 8.41929 6.51194 9.16243C6.82869 9.90558 7.383 10.5227 8.08804 10.917C7.23757 11.159 6.44653 11.5747 5.76492 12.138C5.08331 12.7013 4.52594 13.3998 4.12804 14.1894C2.83734 12.7701 2.12571 10.9184 2.13364 9.00002C2.13364 6.94724 2.9491 4.97854 4.40063 3.52701C5.85216 2.07548 7.82086 1.26002 9.87364 1.26002ZM9.87364 10.665C9.29383 10.665 8.72705 10.493 8.24503 10.1708C7.76302 9.84854 7.38742 9.39056 7.16579 8.85478C6.94415 8.31901 6.88644 7.72953 6.99995 7.16094C7.11345 6.59235 7.39308 6.07021 7.80345 5.6606C8.21381 5.25099 8.73646 4.97233 9.30526 4.85987C9.87406 4.74741 10.4634 4.80621 10.9988 5.02883C11.5342 5.25146 11.9915 5.62789 12.3128 6.11051C12.6342 6.59312 12.8051 7.16021 12.804 7.74002C12.8021 8.51613 12.4926 9.25982 11.9433 9.80811C11.394 10.3564 10.6497 10.6645 9.87364 10.665ZM4.67524 14.7312C5.12929 13.7335 5.86087 12.8875 6.78265 12.2943C7.70443 11.701 8.77745 11.3856 9.87364 11.3856C10.9698 11.3856 12.0429 11.701 12.9646 12.2943C13.8864 12.8875 14.618 13.7335 15.072 14.7312C13.6496 16.0245 11.7961 16.7412 9.87364 16.7412C7.95114 16.7412 6.09768 16.0245 4.67524 14.7312Z" fill="black"/>
</g>
<defs>
<clipPath id="clip0_0_34">
<rect width="18" height="18" fill="white" transform="translate(0.873657)"/>
</clipPath>
</defs>
</svg>
